<svg xmlns="http://www.w3.org/2000/svg" viewBox="0 0 16 16">
  <defs>
    <style>.canvas{fill: none; opacity: 0;}.light-defaultgrey-10{fill: #212121; opacity: 0.1;}.light-defaultgrey{fill: #212121; opacity: 1;}.light-blue{fill: #005dba; opacity: 1;}.cls-1{opacity:0.75;}</style>
  </defs>
  <title>IconLightOpenfileDialog</title>
  <g id="canvas" class="canvas">
    <path class="canvas" d="M16,16H0V0H16Z" />
  </g>
  <g id="level-1">
    <g class="cls-1">
      <path class="light-defaultgrey-10" d="M14.5,4.5v9H1.5V7H2V5a.991.991,0,0,1,.117-.469L3.854,6.267,5.621,4.5Z" />
      <path class="light-defaultgrey" d="M15,4.5v9l-.5.5H1.5L1,13.5V7H2v6H14V5H5.121l1-1H14.5Z" />
    </g>
    <path class="light-defaultgrey-10" d="M14.5,2.5v2H5.621L6.854,3.267V2.5Z" />
    <path class="light-blue" d="M5.854,2.146v.707l-2,2-.707-.707L4.293,3H3A2,2,0,0,0,1,5V6H0V5A3,3,0,0,1,3,2H4.293L3.147.853,3.854.146Z" />
    <path class="light-defaultgrey" d="M15,2.5v2l-.5.5H5.121l1-1H14V3H6.854V2H14.5Z" />
  </g>
</svg>
